<?xml version="1.0" standalone="no"?>
<!DOCTYPE svg PUBLIC "-//W3C//DTD SVG 20010904//EN"
 "http://www.w3.org/TR/2001/REC-SVG-20010904/DTD/svg10.dtd">
<svg version="1.0" xmlns="http://www.w3.org/2000/svg"
 width="491.000000pt" height="491.000000pt" viewBox="0 0 491.000000 491.000000"
 preserveAspectRatio="xMidYMid meet">
<metadata>
Created by potrace 1.11, written by Peter Selinger 2001-2013
</metadata>
<g transform="translate(0.000000,491.000000) scale(0.100000,-0.100000)"
fill="#000000" stroke="none">
<path d="M1597 4142 c-51 -39 -108 -106 -239 -283 -153 -206 -259 -331 -393
-465 -141 -142 -383 -353 -413 -361 -15 -3 -30 0 -40 10 -30 31 -18 110 47
310 34 102 66 216 73 254 12 71 5 147 -14 141 -5 -2 -29 -51 -53 -109 -23 -59
-82 -171 -130 -249 -49 -79 -96 -165 -106 -190 -26 -70 -49 -209 -56 -350 -9
-193 18 -298 152 -590 69 -149 105 -251 105 -296 0 -20 -9 -44 -24 -61 -24
-27 -27 -28 -128 -28 -123 0 -154 12 -226 88 -27 29 -70 75 -96 102 l-48 50 5
-50 c5 -60 54 -166 103 -223 20 -24 62 -54 100 -73 65 -32 65 -32 277 -40 248
-8 271 -14 412 -97 55 -33 165 -98 245 -144 179 -105 284 -184 373 -276 88
-92 88 -109 -6 -179 -91 -69 -154 -97 -222 -97 -81 -1 -108 8 -156 51 -43 39
-73 92 -105 182 -10 30 -32 68 -49 85 l-30 31 -3 -39 c-5 -54 24 -223 48 -289
48 -127 184 -196 367 -185 84 5 78 2 240 97 132 78 238 69 381 -34 141 -100
159 -107 218 -79 34 16 74 75 74 107 0 28 -42 66 -128 118 -182 109 -285 185
-547 404 -195 162 -326 263 -470 359 -289 194 -349 259 -476 520 -67 137 -109
266 -109 331 0 49 37 181 65 233 16 29 132 155 299 324 284 287 382 404 478
570 169 288 251 438 246 444 -3 2 -21 -8 -41 -24z"/>
<path d="M3270 4158 c0 -8 20 -45 43 -83 24 -39 76 -131 116 -205 152 -282
224 -374 570 -722 146 -147 273 -281 283 -297 28 -43 68 -169 74 -231 8 -78
-24 -189 -97 -339 -116 -242 -227 -373 -410 -486 -157 -97 -233 -153 -524
-395 -250 -207 -413 -327 -603 -442 -81 -48 -99 -76 -83 -128 13 -43 52 -77
99 -86 36 -7 81 15 177 86 84 63 116 78 188 86 74 9 144 -10 217 -57 114 -74
138 -82 236 -87 198 -9 323 66 369 220 19 65 39 242 30 275 l-6 27 -24 -30
c-13 -16 -34 -54 -46 -84 -71 -175 -110 -220 -206 -240 -79 -17 -137 0 -242
71 -90 60 -118 92 -107 127 8 25 155 166 217 209 118 82 570 345 614 359 33
10 120 18 255 24 113 4 220 13 238 19 54 16 117 57 152 98 48 54 100 172 100
225 l0 43 -102 -107 c-91 -94 -109 -108 -157 -122 -62 -18 -164 -21 -208 -6
-30 11 -53 45 -53 78 0 43 35 145 95 272 157 340 185 476 154 750 -19 167 -36
212 -145 395 -57 94 -119 214 -140 266 -20 52 -41 98 -46 104 -16 18 -28 -18
-26 -75 3 -74 15 -124 82 -329 61 -188 73 -269 42 -299 -25 -25 -52 -8 -208
128 -263 231 -447 431 -643 700 -112 155 -210 266 -252 289 -18 9 -23 9 -23
-1z"/>
</g>
</svg>
